<svg id="svg" version="1.1" xmlns="http://www.w3.org/2000/svg" xmlns:xlink="http://www.w3.org/1999/xlink" width="400" height="400" viewBox="0, 0, 400,400"><g id="svgg"><path id="path0" d="M0.000 200.000 L 0.000 400.000 200.000 400.000 L 400.000 400.000 400.000 200.000 L 400.000 0.000 200.000 0.000 L 0.000 0.000 0.000 200.000 M157.434 152.811 C 167.781 157.989,164.095 181.113,151.018 193.065 L 149.557 194.400 156.266 194.400 L 162.974 194.400 163.754 195.179 C 164.342 195.768,164.534 196.209,164.536 196.979 L 164.539 198.000 165.193 197.170 C 166.273 195.801,168.258 195.094,171.067 195.079 C 175.277 195.057,176.580 196.249,176.721 200.252 C 177.349 218.157,178.036 230.879,178.398 231.282 C 178.597 231.505,181.919 226.555,185.596 220.557 L 187.700 217.124 187.026 215.186 C 183.578 205.270,191.191 193.399,199.847 195.196 C 205.322 196.332,206.816 202.783,203.742 212.000 C 203.326 213.247,203.026 214.309,203.076 214.361 C 203.183 214.472,207.179 213.966,209.513 213.545 L 211.159 213.249 211.745 211.644 C 218.586 192.880,244.239 188.616,247.222 205.746 C 249.186 217.027,241.788 225.071,225.380 229.494 L 224.493 229.733 225.247 230.706 C 230.078 236.945,241.927 235.024,251.970 226.373 L 253.230 225.288 253.554 220.978 C 254.124 213.408,256.134 203.314,257.763 199.841 C 259.440 196.265,263.163 194.583,267.959 195.234 C 270.961 195.642,271.024 196.596,268.679 206.133 C 267.369 211.457,265.930 219.353,266.217 219.639 C 266.275 219.698,266.537 219.173,266.799 218.473 C 272.507 203.201,285.444 192.157,293.467 195.706 C 297.085 197.307,297.621 199.853,296.138 208.400 C 295.067 214.571,295.068 215.892,296.143 216.967 C 297.600 218.425,300.406 217.419,304.354 214.024 C 306.834 211.892,307.479 211.579,308.911 211.811 L 309.793 211.955 311.712 207.803 C 312.767 205.520,314.194 202.320,314.882 200.693 C 317.105 195.436,319.208 193.983,324.533 194.025 C 330.134 194.068,330.685 195.186,328.005 201.067 C 325.103 207.435,325.346 208.692,330.911 216.119 C 336.373 223.407,337.416 225.652,337.447 230.188 L 337.467 233.042 338.933 232.222 C 340.516 231.337,342.071 230.150,344.055 228.311 L 345.311 227.148 345.153 224.174 C 344.315 208.374,354.972 195.229,368.667 195.171 C 377.848 195.132,383.011 200.482,382.592 209.600 C 382.141 219.411,375.490 225.496,360.966 229.385 L 359.665 229.733 360.874 231.078 C 366.729 237.590,379.223 234.502,389.632 223.969 C 394.135 219.413,396.660 219.848,397.010 225.239 C 397.361 230.655,394.150 234.787,385.264 240.355 C 373.911 247.469,358.162 246.594,350.602 238.428 L 349.130 236.838 348.378 237.623 C 345.261 240.877,340.165 243.010,333.751 243.744 C 331.718 243.977,330.912 244.190,330.284 244.661 C 322.786 250.288,310.337 247.248,309.909 239.686 C 309.601 234.235,313.832 231.564,321.133 232.599 C 324.144 233.026,324.063 233.110,323.337 230.323 C 322.636 227.631,320.007 223.152,317.334 220.096 L 316.601 219.259 315.392 221.429 C 310.136 230.866,302.464 239.238,299.072 239.238 C 294.903 239.238,293.818 234.605,297.040 230.563 C 297.495 229.993,297.867 229.500,297.867 229.466 C 297.867 229.433,297.237 229.523,296.467 229.666 C 293.223 230.267,288.234 229.295,286.076 227.640 C 282.919 225.220,282.083 222.328,282.540 215.409 C 283.296 203.982,273.216 218.696,268.526 235.867 C 266.433 243.526,265.165 245.067,260.930 245.100 C 257.501 245.126,254.133 241.620,254.133 238.024 C 254.133 237.770,253.216 238.243,251.533 239.366 C 236.131 249.643,216.652 246.022,211.334 231.894 C 210.851 230.610,209.862 226.302,209.867 225.498 C 209.867 225.481,208.213 225.508,206.192 225.558 C 202.818 225.641,200.658 225.424,197.058 224.640 C 196.433 224.504,196.165 224.827,193.476 228.949 C 186.595 239.500,183.232 243.111,178.964 244.530 C 173.267 246.425,168.357 243.901,166.654 238.200 C 166.239 236.811,166.381 236.800,164.570 238.366 C 152.069 249.174,135.035 246.896,129.556 233.684 L 128.983 232.302 125.225 236.105 C 110.473 251.036,96.186 247.182,95.966 228.214 L 95.930 225.094 95.098 225.280 C 93.309 225.681,85.549 225.484,83.201 224.978 C 81.092 224.524,80.916 224.521,80.667 224.934 C 72.763 238.071,66.835 244.334,61.652 245.025 C 54.850 245.932,51.737 241.850,50.903 230.933 C 50.751 228.953,50.546 226.562,50.447 225.620 L 50.267 223.907 48.973 227.220 C 44.224 239.380,40.254 244.385,34.861 245.016 C 27.957 245.824,24.285 241.545,23.233 231.467 C 22.572 225.136,22.073 215.117,22.038 207.463 L 22.000 199.327 22.671 197.997 C 24.665 194.042,33.349 193.902,34.378 197.807 C 34.522 198.353,34.768 202.741,34.925 207.557 C 35.202 216.066,35.811 227.158,36.164 230.133 L 36.338 231.600 37.396 229.333 C 40.630 222.412,44.696 212.695,48.910 201.819 C 51.134 196.077,52.936 194.593,57.149 195.033 C 61.066 195.443,61.211 195.858,61.580 207.733 C 61.849 216.403,62.481 228.032,62.825 230.645 L 62.979 231.823 65.659 227.712 C 67.133 225.450,69.237 222.112,70.334 220.294 L 72.328 216.988 71.908 216.108 C 67.455 206.768,75.452 193.342,84.367 195.193 C 89.888 196.339,91.386 202.736,88.294 211.955 C 87.868 213.227,87.543 214.292,87.572 214.323 C 87.688 214.448,92.811 213.802,95.040 213.381 L 97.414 212.933 98.301 208.800 C 100.875 196.805,102.035 195.147,107.853 195.147 C 114.243 195.147,114.371 195.840,111.074 212.533 C 108.268 226.741,108.171 230.894,110.600 232.805 C 112.802 234.536,116.030 232.445,122.337 225.200 C 123.870 223.440,125.408 221.811,125.755 221.581 L 126.387 221.162 126.460 213.277 L 126.533 205.393 123.333 205.281 C 118.197 205.101,117.200 204.285,117.200 200.258 C 117.200 195.480,118.480 194.400,124.140 194.400 L 127.907 194.400 128.376 191.667 C 132.893 165.318,146.383 147.280,157.434 152.811 M149.846 162.739 C 147.894 164.055,145.241 170.597,143.332 178.800 C 142.395 182.828,140.708 192.264,140.892 192.448 C 141.441 192.996,147.642 185.192,149.407 181.733 C 153.344 174.015,154.421 163.981,151.481 162.408 C 150.816 162.052,150.888 162.037,149.846 162.739 M115.200 172.190 C 120.466 173.814,121.715 181.053,117.479 185.402 C 113.037 189.964,102.971 188.650,101.391 183.302 C 99.119 175.613,106.649 169.554,115.200 172.190 M163.777 201.246 C 163.693 201.850,161.990 203.295,160.627 203.919 C 158.075 205.087,155.790 205.333,147.482 205.333 L 139.812 205.333 139.639 207.374 C 138.433 221.639,141.054 230.888,146.849 232.816 C 151.882 234.491,156.142 232.931,161.776 227.349 L 164.752 224.400 164.498 220.933 C 164.358 219.027,164.149 213.747,164.032 209.200 C 163.915 204.653,163.800 201.074,163.777 201.246 M230.398 205.849 C 226.500 207.035,223.527 212.197,222.979 218.733 C 222.748 221.484,222.630 221.415,225.770 220.366 C 232.383 218.157,236.000 214.499,236.000 210.017 C 236.000 206.751,233.514 204.901,230.398 205.849 M365.303 205.968 C 361.631 207.280,358.675 212.660,358.217 218.867 C 358.025 221.463,357.935 221.415,361.020 220.380 C 368.115 217.998,372.153 213.387,371.161 208.800 C 370.598 206.198,368.074 204.978,365.303 205.968 " stroke="none" fill="#fcfcfc" fill-rule="evenodd"></path><path id="path1" d="M151.247 152.269 C 141.541 154.319,132.362 169.987,128.675 190.800 C 128.441 192.120,128.191 193.470,128.120 193.800 C 127.993 194.386,127.905 194.400,124.451 194.400 C 118.839 194.400,117.328 195.596,117.304 200.055 C 117.283 204.193,118.097 204.895,123.069 205.025 L 126.562 205.116 126.548 213.228 C 126.535 220.595,126.492 221.352,126.084 221.482 C 125.836 221.561,124.580 222.850,123.292 224.346 C 116.682 232.025,113.489 234.332,111.066 233.182 C 108.007 231.730,108.010 227.259,111.079 211.867 C 114.246 195.979,114.116 195.333,107.733 195.333 C 101.977 195.333,100.006 198.631,97.750 212.039 L 97.586 213.011 94.593 213.566 C 90.664 214.294,87.467 214.570,87.467 214.180 C 87.467 214.019,87.692 213.312,87.968 212.610 C 91.725 203.040,89.498 195.229,83.006 195.206 C 74.960 195.177,68.925 205.072,71.461 214.133 C 71.769 215.233,72.086 216.382,72.165 216.685 C 72.332 217.318,70.115 221.120,65.645 227.867 L 62.819 232.133 62.626 229.924 C 62.154 224.501,61.562 213.079,61.380 205.856 C 61.127 195.828,60.841 195.199,56.533 195.202 C 52.488 195.204,51.133 196.345,49.202 201.368 C 45.161 211.880,41.971 219.517,37.327 229.800 C 36.144 232.420,36.134 232.401,35.766 226.867 C 35.117 217.096,34.948 213.595,34.791 206.667 C 34.545 195.756,34.093 194.961,28.302 195.254 C 22.390 195.554,22.010 196.449,22.216 209.600 C 22.668 238.475,25.065 245.692,33.968 244.988 C 40.085 244.505,43.836 240.007,48.901 227.084 C 50.591 222.773,50.468 222.623,50.927 229.550 C 51.742 241.844,54.573 245.888,61.647 244.858 C 66.780 244.109,69.809 241.177,77.542 229.467 C 79.382 226.680,80.898 224.382,80.911 224.360 C 80.923 224.338,82.013 224.563,83.333 224.860 C 85.930 225.445,91.312 225.641,94.292 225.258 L 95.917 225.050 96.080 228.725 C 96.929 247.913,112.072 250.871,126.518 234.671 L 128.903 231.996 129.781 233.892 C 132.982 240.803,138.574 244.500,146.553 244.980 C 153.553 245.401,158.263 243.605,164.811 238.015 L 166.227 236.806 166.939 238.635 C 169.338 244.803,174.513 246.691,180.735 243.669 C 184.112 242.028,189.649 235.208,196.133 224.699 C 196.375 224.308,196.537 224.304,197.861 224.659 C 200.305 225.314,204.469 225.683,207.335 225.497 L 210.014 225.324 210.361 227.529 C 213.028 244.500,234.063 250.752,250.933 239.589 C 252.473 238.570,253.808 237.701,253.899 237.657 C 253.989 237.614,254.387 238.614,254.781 239.879 C 255.983 243.734,258.322 245.403,261.923 244.976 C 265.314 244.575,266.360 243.052,268.549 235.333 C 272.178 222.540,278.223 211.467,281.579 211.467 C 282.900 211.467,283.037 212.070,282.645 216.155 C 281.748 225.507,285.122 229.451,294.030 229.462 L 298.060 229.467 297.173 230.549 C 293.320 235.251,296.034 241.033,301.026 238.756 C 303.727 237.524,311.111 228.677,314.787 222.267 C 315.629 220.800,316.413 219.498,316.531 219.374 C 317.574 218.273,323.719 229.224,323.730 232.202 L 323.733 233.071 322.200 232.869 C 315.039 231.924,311.286 233.351,310.137 237.454 C 307.721 246.082,321.959 250.922,330.529 244.385 C 331.105 243.946,331.730 243.733,332.445 243.733 C 337.485 243.733,343.177 241.686,347.345 238.374 L 349.305 236.816 350.979 238.560 C 358.784 246.688,374.166 247.305,385.713 239.954 C 394.524 234.345,397.823 229.663,396.794 224.234 C 395.971 219.898,393.843 219.905,389.495 224.257 C 381.051 232.707,371.745 236.244,364.533 233.744 C 362.321 232.977,358.990 229.822,360.041 229.489 C 360.239 229.427,361.529 229.062,362.909 228.679 C 374.491 225.463,381.086 219.724,382.382 211.733 C 383.940 202.122,378.364 195.222,369.023 195.204 C 357.635 195.182,348.008 204.141,345.705 216.903 C 345.331 218.977,345.143 226.143,345.450 226.639 C 345.835 227.262,338.729 233.067,337.582 233.067 C 337.481 233.067,337.345 231.657,337.280 229.933 C 337.101 225.256,336.075 223.129,330.302 215.467 C 325.306 208.836,324.986 206.771,328.019 200.763 C 330.675 195.500,329.715 193.982,323.867 194.201 C 319.142 194.377,317.143 195.678,315.483 199.656 C 312.465 206.888,309.786 212.242,309.312 211.989 C 308.080 211.329,306.909 211.851,304.251 214.245 C 301.079 217.101,298.196 218.326,296.595 217.498 C 294.968 216.657,294.856 214.925,296.003 208.408 C 297.697 198.788,296.526 195.748,290.947 195.280 C 282.627 194.583,271.903 205.001,266.795 218.742 C 265.156 223.153,266.198 215.920,268.706 205.477 C 271.078 195.602,270.847 194.919,265.253 195.282 C 261.276 195.539,258.821 197.198,257.605 200.448 C 255.697 205.547,253.610 217.277,253.603 222.944 L 253.600 224.956 252.467 226.046 C 243.759 234.427,231.364 236.999,225.921 231.555 C 224.095 229.730,224.109 229.709,227.743 228.658 C 241.051 224.806,247.318 218.346,247.266 208.533 C 247.163 189.267,219.858 191.235,212.116 211.067 C 211.121 213.615,210.566 213.864,204.914 214.304 L 202.761 214.471 203.754 211.436 C 207.059 201.333,204.602 194.840,197.632 195.257 C 189.616 195.736,184.019 206.522,187.181 215.399 L 187.774 217.064 186.900 218.599 C 185.846 220.449,183.236 224.589,180.385 228.933 L 178.284 232.133 178.095 230.267 C 177.676 226.142,177.022 213.915,176.820 206.449 C 176.562 196.862,176.377 196.207,173.718 195.462 C 170.579 194.584,166.477 195.593,165.144 197.573 L 164.533 198.479 164.533 197.613 C 164.533 194.715,163.670 194.403,155.632 194.401 L 149.530 194.400 152.300 191.533 C 167.421 175.882,166.700 149.005,151.247 152.269 M152.445 163.413 C 155.423 169.312,150.882 182.609,143.248 190.345 C 140.506 193.124,140.542 193.180,141.459 187.557 C 144.315 170.036,149.755 158.082,152.445 163.413 M107.097 172.392 C 102.120 174.149,99.627 179.720,101.861 184.094 C 104.828 189.904,116.045 189.264,118.951 183.119 C 122.498 175.620,115.612 169.388,107.097 172.392 M164.042 202.314 C 163.944 204.216,164.426 218.666,164.709 222.334 L 164.879 224.534 161.919 227.451 C 156.835 232.460,153.154 234.098,148.623 233.368 C 141.743 232.260,139.648 227.568,139.617 213.200 L 139.600 205.200 148.667 205.045 C 157.995 204.886,158.658 204.812,160.933 203.673 C 162.249 203.015,163.132 202.227,163.632 201.267 C 164.146 200.280,164.146 200.281,164.042 202.314 M234.121 205.994 C 237.308 207.642,236.732 212.943,232.984 216.444 C 230.778 218.505,224.980 221.333,222.961 221.333 C 221.975 221.333,223.360 214.024,224.935 210.910 C 227.090 206.650,231.169 204.467,234.121 205.994 M369.523 206.124 C 372.801 208.123,371.660 214.137,367.407 217.279 C 364.408 219.494,357.862 222.063,357.869 221.021 C 357.929 211.243,364.384 202.991,369.523 206.124 " stroke="none" fill="#dcdcdc" fill-rule="evenodd"></path><path id="path2" d="M153.152 168.000 C 153.152 168.953,153.200 169.343,153.260 168.867 C 153.319 168.390,153.319 167.610,153.260 167.133 C 153.200 166.657,153.152 167.047,153.152 168.000 M117.333 173.417 C 117.333 173.463,117.723 173.853,118.200 174.283 L 119.067 175.067 118.283 174.200 C 117.553 173.392,117.333 173.211,117.333 173.417 M152.121 191.800 L 151.067 192.933 152.200 191.879 C 153.254 190.899,153.456 190.667,153.254 190.667 C 153.211 190.667,152.701 191.177,152.121 191.800 M170.733 195.117 C 170.990 195.184,171.410 195.184,171.667 195.117 C 171.923 195.050,171.713 194.995,171.200 194.995 C 170.687 194.995,170.477 195.050,170.733 195.117 M21.975 205.067 C 21.975 207.487,22.016 208.477,22.065 207.267 C 22.114 206.057,22.114 204.077,22.065 202.867 C 22.016 201.657,21.975 202.647,21.975 205.067 M296.873 201.867 C 296.873 202.527,296.925 202.797,296.988 202.467 C 297.052 202.137,297.052 201.597,296.988 201.267 C 296.925 200.937,296.873 201.207,296.873 201.867 M123.000 205.263 C 123.697 205.318,124.837 205.318,125.533 205.263 C 126.230 205.208,125.660 205.163,124.267 205.163 C 122.873 205.163,122.303 205.208,123.000 205.263 M139.569 205.451 C 139.488 205.663,139.478 206.053,139.547 206.318 C 139.629 206.635,139.682 206.551,139.702 206.071 L 139.733 205.342 147.267 205.266 L 154.800 205.191 147.258 205.129 C 140.896 205.076,139.694 205.127,139.569 205.451 M34.749 207.333 C 34.751 208.213,34.801 208.541,34.860 208.062 C 34.919 207.583,34.918 206.863,34.857 206.462 C 34.796 206.061,34.748 206.453,34.749 207.333 M61.410 208.667 C 61.412 209.400,61.463 209.668,61.525 209.263 C 61.586 208.858,61.584 208.258,61.521 207.930 C 61.458 207.602,61.408 207.933,61.410 208.667 M126.462 208.533 C 126.462 209.047,126.517 209.257,126.584 209.000 C 126.651 208.743,126.651 208.323,126.584 208.067 C 126.517 207.810,126.462 208.020,126.462 208.533 M186.221 209.733 C 186.222 210.760,186.270 211.147,186.328 210.594 C 186.386 210.041,186.385 209.201,186.326 208.727 C 186.267 208.254,186.220 208.707,186.221 209.733 M176.876 209.733 C 176.878 210.467,176.930 210.735,176.991 210.330 C 177.053 209.924,177.051 209.324,176.988 208.996 C 176.924 208.668,176.874 209.000,176.876 209.733 M70.734 209.733 C 70.737 210.320,70.791 210.529,70.855 210.197 C 70.919 209.865,70.917 209.385,70.850 209.130 C 70.783 208.875,70.731 209.147,70.734 209.733 M164.088 210.533 C 164.089 211.560,164.137 211.947,164.195 211.394 C 164.252 210.841,164.251 210.001,164.192 209.527 C 164.134 209.054,164.086 209.507,164.088 210.533 M34.995 214.400 C 34.995 214.913,35.050 215.123,35.117 214.867 C 35.184 214.610,35.184 214.190,35.117 213.933 C 35.050 213.677,34.995 213.887,34.995 214.400 M61.662 215.200 C 61.662 215.713,61.717 215.923,61.784 215.667 C 61.851 215.410,61.851 214.990,61.784 214.733 C 61.717 214.477,61.662 214.687,61.662 215.200 M177.134 215.867 C 177.137 216.453,177.191 216.662,177.255 216.330 C 177.319 215.999,177.317 215.519,177.250 215.264 C 177.183 215.009,177.131 215.280,177.134 215.867 M22.201 216.133 C 22.204 216.720,22.258 216.929,22.322 216.597 C 22.386 216.265,22.383 215.785,22.317 215.530 C 22.250 215.275,22.198 215.547,22.201 216.133 M368.383 216.333 L 367.600 217.200 368.467 216.417 C 369.275 215.687,369.456 215.467,369.250 215.467 C 369.204 215.467,368.814 215.857,368.383 216.333 M164.329 217.600 C 164.329 218.113,164.383 218.323,164.450 218.067 C 164.518 217.810,164.518 217.390,164.450 217.133 C 164.383 216.877,164.329 217.087,164.329 217.600 M222.729 219.200 C 222.729 219.713,222.783 219.923,222.850 219.667 C 222.918 219.410,222.918 218.990,222.850 218.733 C 222.783 218.477,222.729 218.687,222.729 219.200 M35.262 219.467 C 35.262 219.980,35.317 220.190,35.384 219.933 C 35.451 219.677,35.451 219.257,35.384 219.000 C 35.317 218.743,35.262 218.953,35.262 219.467 M357.929 220.533 C 357.929 221.047,357.983 221.257,358.050 221.000 C 358.118 220.743,358.118 220.323,358.050 220.067 C 357.983 219.810,357.929 220.020,357.929 220.533 M345.139 224.000 C 345.139 224.660,345.191 224.930,345.255 224.600 C 345.318 224.270,345.318 223.730,345.255 223.400 C 345.191 223.070,345.139 223.340,345.139 224.000 M253.395 224.267 C 253.395 224.780,253.450 224.990,253.517 224.733 C 253.584 224.477,253.584 224.057,253.517 223.800 C 253.450 223.543,253.395 223.753,253.395 224.267 M161.993 227.267 L 160.133 229.200 162.067 227.340 C 163.862 225.613,164.122 225.333,163.926 225.333 C 163.886 225.333,163.016 226.203,161.993 227.267 M337.406 230.400 C 337.406 231.060,337.458 231.330,337.522 231.000 C 337.585 230.670,337.585 230.130,337.522 229.800 C 337.458 229.470,337.406 229.740,337.406 230.400 M293.536 229.789 C 293.868 229.852,294.348 229.850,294.603 229.783 C 294.858 229.716,294.587 229.664,294.000 229.667 C 293.413 229.670,293.205 229.725,293.536 229.789 M149.803 233.522 C 150.135 233.586,150.615 233.583,150.870 233.517 C 151.125 233.450,150.853 233.398,150.267 233.401 C 149.680 233.404,149.471 233.458,149.803 233.522 M305.717 234.467 L 304.933 235.333 305.800 234.550 C 306.608 233.820,306.789 233.600,306.583 233.600 C 306.537 233.600,306.147 233.990,305.717 234.467 M369.400 234.584 C 369.657 234.651,370.077 234.651,370.333 234.584 C 370.590 234.517,370.380 234.462,369.867 234.462 C 369.353 234.462,369.143 234.517,369.400 234.584 M125.717 235.533 L 124.933 236.400 125.800 235.617 C 126.608 234.887,126.789 234.667,126.583 234.667 C 126.537 234.667,126.147 235.057,125.717 235.533 M350.800 238.667 C 351.373 239.253,351.902 239.733,351.975 239.733 C 352.048 239.733,351.640 239.253,351.067 238.667 C 350.494 238.080,349.965 237.600,349.892 237.600 C 349.818 237.600,350.227 238.080,350.800 238.667 " stroke="none" fill="#ececec" fill-rule="evenodd"></path><path id="path3" d="M163.262 165.867 C 163.262 166.380,163.317 166.590,163.384 166.333 C 163.451 166.077,163.451 165.657,163.384 165.400 C 163.317 165.143,163.262 165.353,163.262 165.867 M34.743 204.667 C 34.745 205.400,34.797 205.668,34.858 205.263 C 34.919 204.858,34.918 204.258,34.854 203.930 C 34.791 203.602,34.741 203.933,34.743 204.667 M61.406 206.400 C 61.406 207.060,61.458 207.330,61.522 207.000 C 61.585 206.670,61.585 206.130,61.522 205.800 C 61.458 205.470,61.406 205.740,61.406 206.400 M176.862 207.733 C 176.862 208.247,176.917 208.457,176.984 208.200 C 177.051 207.943,177.051 207.523,176.984 207.267 C 176.917 207.010,176.862 207.220,176.862 207.733 M21.939 210.400 C 21.939 211.060,21.991 211.330,22.055 211.000 C 22.118 210.670,22.118 210.130,22.055 209.800 C 21.991 209.470,21.939 209.740,21.939 210.400 M253.395 222.667 C 253.395 223.180,253.450 223.390,253.517 223.133 C 253.584 222.877,253.584 222.457,253.517 222.200 C 253.450 221.943,253.395 222.153,253.395 222.667 M118.119 229.800 L 117.200 230.800 118.200 229.881 C 119.131 229.026,119.323 228.800,119.119 228.800 C 119.074 228.800,118.624 229.250,118.119 229.800 " stroke="none" fill="#f4f4f4" fill-rule="evenodd"></path><path id="path4" d="" stroke="none" fill="#100f8fc" fill-rule="evenodd"></path></g></svg>